<svg width="24" height="24" viewBox="0 0 24 24" fill="none" xmlns="http://www.w3.org/2000/svg" class="hidden size-[22px] text-primary group-hover:block group-[.active]:block"><path opacity="0.4" d="M16.8203 2H7.18031C5.05031 2 3.32031 3.74 3.32031 5.86V19.95C3.32031 21.75 4.61031 22.51 6.19031 21.64L11.0703 18.93C11.5903 18.64 12.4303 18.64 12.9403 18.93L17.8203 21.64C19.4003 22.52 20.6903 21.76 20.6903 19.95V5.86C20.6803 3.74 18.9503 2 16.8203 2Z" fill="currentColor"></path><path d="M14.5 10.8984H9.5C9.36614 10.8984 9.25 10.7823 9.25 10.6484C9.25 10.5146 9.36614 10.3984 9.5 10.3984H14.5C14.6339 10.3984 14.75 10.5146 14.75 10.6484C14.75 10.7823 14.6339 10.8984 14.5 10.8984Z" fill="currentColor" stroke="currentColor"></path></svg>