<svg viewBox="0 0 57 56" fill="none" xmlns="http://www.w3.org/2000/svg" class="size-11 flex-shrink-0 text-primary desktop:size-14 laptop:hidden"><g id="logo"><rect width="56.1462" height="56" rx="15" fill="currentColor"></rect><g id="Group 1000002603"><path id="Vector" d="M46.4916 25.8883C45.7544 25.4705 44.8334 25.7803 44.4344 26.5364L42.4689 30.5355C42.432 30.6112 42.3677 30.67 42.2889 30.7002C42.2102 30.7304 42.1229 30.7296 42.0447 30.698C41.9828 30.6734 41.9297 30.6307 41.8923 30.5757C41.8549 30.5206 41.8351 30.4556 41.8352 30.3891V19.2822C41.8352 18.6232 41.2249 18.1452 40.5637 18.1452C39.9025 18.1452 39.3287 18.6232 39.3287 19.2822V26.7032C39.3303 26.8418 39.2776 26.9756 39.1819 27.076C39.0862 27.1765 38.955 27.2358 38.8161 27.2414C38.7467 27.2427 38.6777 27.2302 38.6131 27.2046C38.5486 27.179 38.4898 27.1409 38.4402 27.0923C38.3906 27.0438 38.3513 26.9859 38.3244 26.922C38.2975 26.8581 38.2837 26.7895 38.2837 26.7202V17.0081C38.2837 16.3491 37.764 15.8711 37.1028 15.8711C36.4416 15.8711 35.9087 16.3491 35.9087 17.0081V26.7032C35.9103 26.8418 35.8576 26.9756 35.7619 27.076C35.6662 27.1765 35.535 27.2358 35.3961 27.2414C35.3267 27.2427 35.2577 27.2302 35.1931 27.2046C35.1286 27.179 35.0698 27.1409 35.0202 27.0923C34.9706 27.0438 34.9313 26.9859 34.9044 26.922C34.8775 26.8581 34.8637 26.7895 34.8637 26.7202V18.5242C34.8637 17.8652 34.2899 17.3871 33.6287 17.3871C32.9675 17.3871 32.3937 17.9125 32.3937 18.5715V27.4612C32.3953 27.5998 32.3426 27.7336 32.2469 27.8341C32.1512 27.9345 32.02 27.9939 31.8811 27.9994C31.8117 28.0007 31.7427 27.9882 31.6781 27.9626C31.6136 27.937 31.5548 27.8989 31.5052 27.8503C31.4556 27.8018 31.4163 27.7439 31.3894 27.68C31.3625 27.6161 31.3487 27.5475 31.3487 27.4783V21.5562C31.3487 20.8972 30.8224 20.4192 30.1612 20.4192C29.5 20.4192 28.968 20.9034 28.9737 21.5562V31.7895C28.9737 37.3519 32.3937 40.1277 36.5737 40.1277H37.3337C41.5137 40.1277 42.8299 38.2516 43.7937 35.9586L47.0574 27.952C47.3718 27.0993 47.2284 26.3057 46.4916 25.8883Z" fill="white"></path><path id="Vector_2" d="M9.65484 25.8883C10.392 25.4705 11.3131 25.7803 11.7121 26.5364L13.6776 30.5355C13.7145 30.6112 13.7788 30.67 13.8575 30.7002C13.9363 30.7304 14.0236 30.7296 14.1018 30.698C14.1637 30.6734 14.2168 30.6307 14.2542 30.5757C14.2915 30.5206 14.3114 30.4556 14.3113 30.3891V19.2822C14.3113 18.6232 14.9216 18.1452 15.5828 18.1452C16.244 18.1452 16.8178 18.6232 16.8178 19.2822V26.7032C16.8162 26.8418 16.8689 26.9756 16.9646 27.076C17.0603 27.1765 17.1915 27.2358 17.3303 27.2414C17.3998 27.2427 17.4688 27.2302 17.5334 27.2046C17.5979 27.179 17.6567 27.1409 17.7063 27.0923C17.7559 27.0438 17.7952 26.9859 17.8221 26.922C17.849 26.8581 17.8628 26.7895 17.8628 26.7202V17.0081C17.8628 16.3491 18.3825 15.8711 19.0437 15.8711C19.7049 15.8711 20.2378 16.3491 20.2378 17.0081V26.7032C20.2362 26.8418 20.2889 26.9756 20.3846 27.076C20.4803 27.1765 20.6115 27.2358 20.7503 27.2414C20.8198 27.2427 20.8888 27.2302 20.9534 27.2046C21.0179 27.179 21.0767 27.1409 21.1263 27.0923C21.1758 27.0438 21.2152 26.9859 21.2421 26.922C21.269 26.8581 21.2828 26.7895 21.2828 26.7202V18.5242C21.2828 17.8652 21.8566 17.3871 22.5178 17.3871C23.179 17.3871 23.7528 17.9125 23.7528 18.5715V27.4612C23.7512 27.5998 23.8039 27.7336 23.8996 27.8341C23.9953 27.9345 24.1265 27.9939 24.2653 27.9994C24.3348 28.0007 24.4038 27.9882 24.4684 27.9626C24.5329 27.937 24.5917 27.8989 24.6413 27.8503C24.6908 27.8018 24.7302 27.7439 24.7571 27.68C24.784 27.6161 24.7978 27.5475 24.7978 27.4783V21.5562C24.7978 20.8972 25.3241 20.4192 25.9853 20.4192C26.6465 20.4192 27.1785 20.9034 27.1728 21.5562V31.7895C27.1728 37.3519 23.7528 40.1277 19.5728 40.1277H18.8128C14.6328 40.1277 13.3166 38.2516 12.3528 35.9586L9.08911 27.952C8.77466 27.0993 8.91811 26.3057 9.65484 25.8883Z" fill="white"></path></g></g></svg>